<svg width="128" height="128" viewBox="0 0 128 128" fill="none" xmlns="http://www.w3.org/2000/svg">
<rect width="128" height="128" fill="#9FE4A6"/>
<path d="M13.9666 73.14L13.3575 72.3469L13.3575 72.3469L13.9666 73.14ZM8.02664 74.02L8.20043 73.0352L8.20043 73.0352L8.02664 74.02ZM6.32664 73.52H5.32664V74.1546L5.90084 74.4248L6.32664 73.52ZM6.32664 71.8L6.73278 70.8862L5.32664 70.2612V71.8H6.32664ZM8.10664 72.38L7.86842 73.3512L7.87259 73.3522L8.10664 72.38ZM12.7266 72.02L12.1235 71.2223L12.1141 71.2296L12.7266 72.02ZM13.2466 69.16L12.3986 69.69L12.3986 69.69L13.2466 69.16ZM12.2066 68.28L11.7028 69.1438L11.7168 69.152L11.7311 69.1597L12.2066 68.28ZM10.1866 67.4L9.84572 68.3401L9.85306 68.3427L10.1866 67.4ZM7.42664 65.78L6.70461 66.4719L6.71213 66.4796L7.42664 65.78ZM7.08664 61.22L7.89631 61.807L7.90306 61.7975L7.08664 61.22ZM8.68664 59.96L8.29699 59.039L8.29055 59.0418L8.68664 59.96ZM13.2266 59.74L13.4457 58.7643L13.4457 58.7643L13.2266 59.74ZM15.0066 60.32L15.9464 60.6617L16.2638 59.7891L15.417 59.4081L15.0066 60.32ZM14.4466 61.86L14.0497 62.7779L15.0238 63.1991L15.3864 62.2017L14.4466 61.86ZM12.8266 61.32L12.5788 62.2888L12.5841 62.2901L12.8266 61.32ZM9.00664 61.68L9.64235 62.4519L9.64902 62.4464L9.65559 62.4408L9.00664 61.68ZM8.62664 64.38L9.47464 63.85L9.47464 63.85L8.62664 64.38ZM9.60664 65.24L9.11882 66.1129L9.11882 66.1129L9.60664 65.24ZM11.4466 66.06L11.092 66.9951L11.1037 66.9994L11.4466 66.06ZM13.5666 67.06L13.0349 67.9069L13.0463 67.9141L13.0579 67.9209L13.5666 67.06ZM14.8866 68.32L14.0271 68.8311L14.0321 68.8396L14.0374 68.8479L14.8866 68.32ZM14.3466 70.18C14.3466 71.1688 14.0061 71.8487 13.3575 72.3469L14.5758 73.9331C15.7672 73.0179 16.3466 71.7245 16.3466 70.18H14.3466ZM13.3575 72.3469C12.6638 72.8798 11.6617 73.2 10.2466 73.2V75.2C11.9515 75.2 13.4295 74.8136 14.5758 73.9331L13.3575 72.3469ZM10.2466 73.2C9.49598 73.2 8.81489 73.1437 8.20043 73.0352L7.85286 75.0048C8.5984 75.1363 9.3973 75.2 10.2466 75.2V73.2ZM8.20043 73.0352C7.57728 72.9252 7.10192 72.7796 6.75244 72.6152L5.90084 74.4248C6.45803 74.687 7.116 74.8748 7.85286 75.0048L8.20043 73.0352ZM7.32664 73.52V71.8H5.32664V73.52H7.32664ZM5.9205 72.7138C6.47084 72.9584 7.1244 73.1687 7.86842 73.3512L8.34486 71.4088C7.67555 71.2446 7.14244 71.0683 6.73278 70.8862L5.9205 72.7138ZM7.87259 73.3522C8.67123 73.5445 9.48988 73.64 10.3266 73.64V71.64C9.6434 71.64 8.98205 71.5622 8.34069 71.4078L7.87259 73.3522ZM10.3266 73.64C11.4947 73.64 12.5547 73.4184 13.3392 72.8104L12.1141 71.2296C11.8319 71.4482 11.2919 71.64 10.3266 71.64V73.64ZM13.3297 72.8177C14.1354 72.2085 14.5466 71.3486 14.5466 70.34H12.5466C12.5466 70.7447 12.4112 71.0048 12.1235 71.2223L13.3297 72.8177ZM14.5466 70.34C14.5466 69.7302 14.4151 69.1427 14.0946 68.63L12.3986 69.69C12.4782 69.8173 12.5466 70.0165 12.5466 70.34H14.5466ZM14.0946 68.63C13.7688 68.1087 13.2591 67.7122 12.6822 67.4003L11.7311 69.1597C12.1408 69.3812 12.3245 69.5713 12.3986 69.69L14.0946 68.63ZM12.7105 67.4162C12.1528 67.0909 11.4131 66.7732 10.5202 66.4573L9.85306 68.3427C10.6936 68.6401 11.3005 68.9091 11.7028 69.1438L12.7105 67.4162ZM10.5276 66.4599C9.39757 66.0501 8.6271 65.5767 8.14115 65.0804L6.71213 66.4796C7.47951 67.2633 8.54904 67.8699 9.84573 68.3401L10.5276 66.4599ZM8.14863 65.0881C7.75537 64.6777 7.50664 64.0761 7.50664 63.16H5.50664C5.50664 64.4573 5.87125 65.6023 6.70465 66.4719L8.14863 65.0881ZM7.50664 63.16C7.50664 62.5772 7.6517 62.1443 7.89625 61.807L6.27703 60.633C5.74825 61.3624 5.50664 62.2228 5.50664 63.16H7.50664ZM7.90306 61.7975C8.17256 61.4164 8.55305 61.1067 9.08273 60.8782L8.29055 59.0418C7.46023 59.4 6.77405 59.9302 6.27023 60.6425L7.90306 61.7975ZM9.07628 60.881C9.62557 60.6486 10.2826 60.52 11.0666 60.52V58.52C10.064 58.52 9.13438 58.6848 8.297 59.039L9.07628 60.881ZM11.0666 60.52C11.7921 60.52 12.4374 60.5877 13.0076 60.7157L13.4457 58.7643C12.7093 58.599 11.9146 58.52 11.0666 58.52V60.52ZM13.0076 60.7157C13.6044 60.8497 14.1325 61.0232 14.5963 61.2319L15.417 59.4081C14.8141 59.1368 14.1555 58.9236 13.4457 58.7643L13.0076 60.7157ZM14.0668 59.9783L13.5068 61.5183L15.3864 62.2017L15.9464 60.6617L14.0668 59.9783ZM14.8436 60.9421C14.2945 60.7047 13.7022 60.5081 13.0692 60.3499L12.5841 62.2901C13.1244 62.4252 13.6121 62.5886 14.0497 62.7779L14.8436 60.9421ZM13.0745 60.3512C12.4155 60.1826 11.732 60.1 11.0266 60.1V62.1C11.5746 62.1 12.0911 62.164 12.5788 62.2888L13.0745 60.3512ZM11.0266 60.1C10.0102 60.1 9.06348 60.3172 8.35769 60.9192L9.65559 62.4408C9.85647 62.2695 10.2564 62.1 11.0266 62.1V60.1ZM8.37093 60.9081C7.66979 61.4855 7.32664 62.2775 7.32664 63.18H9.32664C9.32664 62.8292 9.43682 62.6212 9.64235 62.4519L8.37093 60.9081ZM7.32664 63.18C7.32664 63.797 7.45559 64.3931 7.77864 64.91L9.47464 63.85C9.39769 63.7269 9.32664 63.523 9.32664 63.18H7.32664ZM7.77864 64.91C8.09519 65.4165 8.57112 65.8069 9.11882 66.1129L10.0945 64.3671C9.73549 64.1665 9.55809 63.9835 9.47464 63.85L7.77864 64.91ZM9.11882 66.1129C9.63236 66.3999 10.2963 66.6932 11.092 66.995L11.8013 65.125C11.0504 64.8402 10.4876 64.5867 10.0945 64.3671L9.11882 66.1129ZM11.1037 66.9994C11.8974 67.2891 12.5365 67.594 13.0349 67.9069L14.0984 66.2131C13.4501 65.806 12.6759 65.4442 11.7896 65.1206L11.1037 66.9994ZM13.0579 67.9209C13.5272 68.1982 13.8342 68.5067 14.0271 68.8311L15.7462 67.8089C15.3524 67.1466 14.7794 66.6151 14.0754 66.1991L13.0579 67.9209ZM14.0374 68.8479C14.2211 69.1435 14.3466 69.5674 14.3466 70.18H16.3466C16.3466 69.2992 16.1656 68.4832 15.7359 67.7921L14.0374 68.8479ZM24.4832 63.68L23.961 64.5329L23.9687 64.5375L24.4832 63.68ZM26.0032 65.38L25.0991 65.8074L25.1038 65.8173L25.1088 65.8272L26.0032 65.38ZM26.5432 68.98V69.98H27.5432V68.98H26.5432ZM19.2032 68.98V67.98H18.181L18.2034 69.002L19.2032 68.98ZM20.1232 71.76L19.386 72.4357L19.3934 72.4437L19.4009 72.4516L20.1232 71.76ZM24.4232 72.52L24.6481 73.4944L24.6569 73.4923L24.6657 73.4901L24.4232 72.52ZM26.0632 71.96H27.0632V70.4435L25.6693 71.0409L26.0632 71.96ZM26.0632 73.5L26.4652 74.4156L27.0632 74.1531V73.5H26.0632ZM24.4432 74.02L24.2471 73.0394L24.2354 73.0418L24.2237 73.0444L24.4432 74.02ZM19.8432 73.58L19.3718 74.462L19.3781 74.4652L19.8432 73.58ZM18.0232 71.74L17.1346 72.1986L17.139 72.2073L17.1437 72.2158L18.0232 71.74ZM17.9632 65.7L17.0603 65.27L17.0548 65.2819L17.9632 65.7ZM19.6232 63.76L19.0904 62.9137L19.0832 62.9183L19.6232 63.76ZM20.1032 65.34L19.3608 64.67L19.3599 64.671L20.1032 65.34ZM19.2432 67.58L18.2479 67.4832L18.1413 68.58H19.2432V67.58ZM24.7032 67.58V68.58H25.718L25.7031 67.5653L24.7032 67.58ZM24.0632 65.38L23.252 65.9648L23.2586 65.9739L24.0632 65.38ZM22.1232 64.08C22.8962 64.08 23.4939 64.2468 23.9611 64.5329L25.0054 62.8271C24.1659 62.3132 23.1902 62.08 22.1232 62.08V64.08ZM23.9687 64.5375C24.4583 64.8312 24.8331 65.2446 25.0991 65.8074L26.9073 64.9526C26.48 64.0487 25.8415 63.3288 24.9977 62.8225L23.9687 64.5375ZM25.1088 65.8272C25.3863 66.3823 25.5432 67.0699 25.5432 67.92H27.5432C27.5432 66.8235 27.3401 65.8177 26.8976 64.9328L25.1088 65.8272ZM25.5432 67.92V68.98H27.5432V67.92H25.5432ZM26.5432 67.98H19.2032V69.98H26.5432V67.98ZM18.2034 69.002C18.2333 70.3617 18.5804 71.5568 19.386 72.4357L20.8604 71.0843C20.4927 70.6832 20.2264 70.0249 20.203 68.958L18.2034 69.002ZM19.4009 72.4516C20.2313 73.3189 21.3507 73.7 22.6232 73.7V71.7C21.7624 71.7 21.2151 71.4545 20.8455 71.0684L19.4009 72.4516ZM22.6232 73.7C23.3593 73.7 24.0374 73.6353 24.6481 73.4944L24.1983 71.5456C23.769 71.6447 23.2471 71.7 22.6232 71.7V73.7ZM24.6657 73.4901C25.256 73.3426 25.8533 73.1379 26.4571 72.8791L25.6693 71.0409C25.1531 71.2621 24.6571 71.4308 24.1807 71.5499L24.6657 73.4901ZM25.0632 71.96V73.5H27.0632V71.96H25.0632ZM25.6612 72.5844C25.1743 72.7981 24.7032 72.9482 24.2471 73.0394L24.6393 75.0006C25.2499 74.8785 25.8588 74.6819 26.4652 74.4156L25.6612 72.5844ZM24.2237 73.0444C23.7821 73.1438 23.226 73.2 22.5432 73.2V75.2C23.3271 75.2 24.0377 75.1362 24.6627 74.9956L24.2237 73.0444ZM22.5432 73.2C21.669 73.2 20.9325 73.0227 20.3083 72.6948L19.3781 74.4652C20.3272 74.9639 21.3908 75.2 22.5432 75.2V73.2ZM20.3146 72.6981C19.7239 72.3823 19.2548 71.915 18.9027 71.2642L17.1437 72.2158C17.6716 73.1917 18.4159 73.951 19.3718 74.4619L20.3146 72.6981ZM18.9118 71.2814C18.5757 70.6302 18.3832 69.7899 18.3832 68.72H16.3832C16.3832 70.0235 16.6173 71.1965 17.1346 72.1986L18.9118 71.2814ZM18.3832 68.72C18.3832 67.6535 18.5592 66.7967 18.8716 66.1181L17.0548 65.2819C16.5939 66.2833 16.3832 67.4398 16.3832 68.72H18.3832ZM18.8661 66.1299C19.1948 65.4396 19.6301 64.9436 20.1632 64.6017L19.0832 62.9183C18.2029 63.483 17.5316 64.2804 17.0603 65.2701L18.8661 66.1299ZM20.156 64.6062C20.6989 64.2644 21.3432 64.08 22.1232 64.08V62.08C21.0099 62.08 19.9875 62.3489 19.0904 62.9138L20.156 64.6062ZM22.1032 63.52C21.0242 63.52 20.0714 63.8826 19.3608 64.67L20.8456 66.01C21.1217 65.704 21.5022 65.52 22.1032 65.52V63.52ZM19.3599 64.671C18.6949 65.4099 18.3549 66.3829 18.2479 67.4832L20.2385 67.6768C20.3182 66.8571 20.5515 66.3367 20.8465 66.009L19.3599 64.671ZM19.2432 68.58H24.7032V66.58H19.2432V68.58ZM25.7031 67.5653C25.6876 66.5128 25.4378 65.5585 24.8678 64.7861L23.2586 65.9739C23.5153 66.3215 23.6921 66.8338 23.7033 67.5947L25.7031 67.5653ZM24.8744 64.7952C24.224 63.893 23.2235 63.52 22.1032 63.52V65.52C22.7695 65.52 23.0758 65.7203 23.252 65.9648L24.8744 64.7952ZM37.3323 64.02L36.64 64.7417L36.6478 64.7491L37.3323 64.02ZM38.3123 74V75H39.3123V74H38.3123ZM36.5723 74H35.5723V75H36.5723V74ZM31.7123 65.56L32.5392 66.1223L32.5392 66.1223L31.7123 65.56ZM31.0323 74V75H32.0323V74H31.0323ZM29.2723 74H28.2723V75H29.2723V74ZM29.2723 63.28V62.28H28.2723V63.28H29.2723ZM30.6923 63.28L31.6768 63.1047L31.5299 62.28H30.6923V63.28ZM30.9523 64.74L29.9678 64.9153L30.1146 65.74H30.9523V64.74ZM31.0523 64.74V65.74H31.6093L31.9025 65.2664L31.0523 64.74ZM32.4923 63.5L32.891 64.4171L32.8993 64.4135L32.9076 64.4097L32.4923 63.5ZM34.4323 64.08C35.5616 64.08 36.2381 64.3562 36.64 64.7417L38.0245 63.2983C37.1197 62.4305 35.863 62.08 34.4323 62.08V64.08ZM36.6478 64.7491C37.0122 65.0912 37.3123 65.7605 37.3123 67.02H39.3123C39.3123 65.5061 38.959 64.1755 38.0167 63.2909L36.6478 64.7491ZM37.3123 67.02V74H39.3123V67.02H37.3123ZM38.3123 73H36.5723V75H38.3123V73ZM37.5723 74V67.14H35.5723V74H37.5723ZM37.5723 67.14C37.5723 66.1431 37.3419 65.2092 36.7045 64.5239C36.0543 63.825 35.1457 63.56 34.1723 63.56V65.56C34.7988 65.56 35.0902 65.725 35.2401 65.8861C35.4026 66.0608 35.5723 66.4169 35.5723 67.14H37.5723ZM34.1723 63.56C32.8206 63.56 31.602 63.9437 30.8853 64.9977L32.5392 66.1223C32.7292 65.8429 33.1506 65.56 34.1723 65.56V63.56ZM30.8853 64.9977C30.2726 65.8988 30.0323 67.0892 30.0323 68.44H32.0323C32.0323 67.2841 32.2453 66.5546 32.5392 66.1223L30.8853 64.9977ZM30.0323 68.44V74H32.0323V68.44H30.0323ZM31.0323 73H29.2723V75H31.0323V73ZM30.2723 74V63.28H28.2723V74H30.2723ZM29.2723 64.28H30.6923V62.28H29.2723V64.28ZM29.7078 63.4553L29.9678 64.9153L31.9368 64.5647L31.6768 63.1047L29.7078 63.4553ZM30.9523 65.74H31.0523V63.74H30.9523V65.74ZM31.9025 65.2664C32.1402 64.8824 32.4614 64.6039 32.891 64.4171L32.0935 62.5829C31.2965 62.9295 30.6576 63.4776 30.202 64.2136L31.9025 65.2664ZM32.9076 64.4097C33.3894 64.1897 33.8943 64.08 34.4323 64.08V62.08C33.6102 62.08 32.8218 62.2503 32.077 62.5903L32.9076 64.4097ZM42.2355 72.82L41.4763 73.4708L41.4809 73.4762L42.2355 72.82ZM42.2355 64.5L41.477 63.8483L41.4763 63.8492L42.2355 64.5ZM47.4755 63.54L46.9675 64.4014L46.9771 64.4069L47.4755 63.54ZM48.7755 64.66L47.9785 65.2639L48.2786 65.66H48.7755V64.66ZM48.8955 64.66V65.66H49.9754L49.8926 64.5833L48.8955 64.66ZM48.8155 63.9L47.8185 63.9767L47.8201 63.998L47.8227 64.0191L48.8155 63.9ZM48.7755 58.8V57.8H47.7755V58.8H48.7755ZM50.5355 58.8H51.5355V57.8H50.5355V58.8ZM50.5355 74V75H51.5355V74H50.5355ZM49.1155 74L48.1315 74.1777L48.2799 75H49.1155V74ZM48.8555 72.56L49.8396 72.3823L49.6912 71.56H48.8555V72.56ZM48.7755 72.56V71.56H48.2574L47.9586 71.9833L48.7755 72.56ZM47.4955 73.72L48.01 74.5775L47.4955 73.72ZM48.0955 71.82L47.2935 71.2227L47.2914 71.2256L48.0955 71.82ZM48.1355 65.62L47.2822 66.1415L47.2867 66.1486L48.1355 65.62ZM43.5555 65.68L42.71 65.146L42.7075 65.15L43.5555 65.68ZM43.5555 71.68L42.721 72.2311L42.7283 72.2419L43.5555 71.68ZM45.4355 73.2C44.3611 73.2 43.5811 72.8434 42.9902 72.1638L41.4809 73.4762C42.49 74.6366 43.8433 75.2 45.4355 75.2V73.2ZM42.9948 72.1692C42.4113 71.4885 42.0355 70.376 42.0355 68.66H40.0355C40.0355 70.624 40.4598 72.2849 41.4763 73.4708L42.9948 72.1692ZM42.0355 68.66C42.0355 66.944 42.4113 65.8315 42.9948 65.1508L41.4763 63.8492C40.4598 65.0351 40.0355 66.696 40.0355 68.66H42.0355ZM42.994 65.1517C43.6031 64.4427 44.3911 64.08 45.4555 64.08V62.08C43.8533 62.08 42.4946 62.6639 41.477 63.8483L42.994 65.1517ZM45.4555 64.08C46.1669 64.08 46.6481 64.213 46.9676 64.4014L47.9835 62.6786C47.263 62.2537 46.3976 62.08 45.4555 62.08V64.08ZM46.9771 64.4069C47.4076 64.6544 47.7348 64.9423 47.9785 65.2639L49.5726 64.0561C49.1496 63.4977 48.6102 63.0389 47.974 62.6731L46.9771 64.4069ZM48.7755 65.66H48.8955V63.66H48.7755V65.66ZM49.8926 64.5833C49.8776 64.3882 49.8489 64.1179 49.8084 63.7809L47.8227 64.0191C47.8622 64.3488 47.8868 64.5851 47.8985 64.7367L49.8926 64.5833ZM49.8126 63.8233C49.7867 63.4865 49.7755 63.2425 49.7755 63.08H47.7755C47.7755 63.3175 47.7911 63.6201 47.8185 63.9767L49.8126 63.8233ZM49.7755 63.08V58.8H47.7755V63.08H49.7755ZM48.7755 59.8H50.5355V57.8H48.7755V59.8ZM49.5355 58.8V74H51.5355V58.8H49.5355ZM50.5355 73H49.1155V75H50.5355V73ZM50.0996 73.8223L49.8396 72.3823L47.8715 72.7377L48.1315 74.1777L50.0996 73.8223ZM48.8555 71.56H48.7755V73.56H48.8555V71.56ZM47.9586 71.9833C47.728 72.31 47.4096 72.6054 46.9811 72.8625L48.01 74.5775C48.6482 74.1946 49.1831 73.7166 49.5925 73.1367L47.9586 71.9833ZM46.9811 72.8625C46.6484 73.0621 46.1557 73.2 45.4355 73.2V75.2C46.3954 75.2 47.276 75.0179 48.01 74.5775L46.9811 72.8625ZM45.7155 73.74C47.0053 73.74 48.1792 73.3892 48.8997 72.4144L47.2914 71.2256C47.1052 71.4775 46.6925 71.74 45.7155 71.74V73.74ZM48.8976 72.4173C49.5497 71.5416 49.7955 70.3484 49.7955 69H47.7955C47.7955 70.1583 47.5748 70.845 47.2935 71.2227L48.8976 72.4173ZM49.7955 69V68.68H47.7955V69H49.7955ZM49.7955 68.68C49.7955 67.2619 49.566 66.0254 48.9844 65.0914L47.2867 66.1486C47.5851 66.6279 47.7955 67.4315 47.7955 68.68H49.7955ZM48.9888 65.0985C48.2983 63.9687 47.0743 63.54 45.6955 63.54V65.54C46.6901 65.54 47.0927 65.8313 47.2823 66.1414L48.9888 65.0985ZM45.6955 63.54C44.4278 63.54 43.3847 64.0778 42.7101 65.146L44.401 66.214C44.6864 65.7622 45.07 65.54 45.6955 65.54V63.54ZM42.7075 65.15C42.1071 66.1107 41.8555 67.3238 41.8555 68.7H43.8555C43.8555 67.5429 44.0707 66.7426 44.4035 66.21L42.7075 65.15ZM41.8555 68.7C41.8555 70.0823 42.1044 71.2972 42.7211 72.2311L44.39 71.1289C44.0734 70.6495 43.8555 69.8777 43.8555 68.7H41.8555ZM42.7283 72.2419C43.4199 73.26 44.4722 73.74 45.7155 73.74V71.74C45.0389 71.74 44.6512 71.5134 44.3828 71.1181L42.7283 72.2419ZM60.4802 74L59.544 74.3515L59.7875 75H60.4802V74ZM55.7802 61.48L56.7164 61.1285L56.473 60.48H55.7802V61.48ZM55.7002 61.48V60.48H54.5988L54.7049 61.5763L55.7002 61.48ZM55.8002 63.16L54.8009 63.1977L54.801 63.1984L55.8002 63.16ZM55.8402 74V75H56.8402V74H55.8402ZM54.1802 74H53.1802V75H54.1802V74ZM54.1802 59.72V58.72H53.1802V59.72H54.1802ZM56.8402 59.72L57.7762 59.368L57.5325 58.72H56.8402V59.72ZM61.2402 71.42L60.3042 71.772L60.5479 72.42H61.2402V71.42ZM61.3202 71.42V72.42H62.0081L62.2541 71.7776L61.3202 71.42ZM65.8002 59.72V58.72H65.1123L64.8664 59.3624L65.8002 59.72ZM68.4402 59.72H69.4402V58.72H68.4402V59.72ZM68.4402 74V75H69.4402V74H68.4402ZM66.6602 74H65.6602V75H66.6602V74ZM66.7002 63.16L65.702 63.1013L65.7014 63.111L65.701 63.1208L66.7002 63.16ZM66.8002 61.5L67.7983 61.5624L67.8647 60.5H66.8002V61.5ZM66.7202 61.5V60.5H66.031L65.7857 61.1441L66.7202 61.5ZM61.9602 74V75H62.6495L62.8948 74.3559L61.9602 74ZM61.4164 73.6485L56.7164 61.1285L54.844 61.8315L59.544 74.3515L61.4164 73.6485ZM55.7802 60.48H55.7002V62.48H55.7802V60.48ZM54.7049 61.5763C54.7421 61.9613 54.7746 62.4991 54.8009 63.1977L56.7995 63.1223C56.7726 62.4076 56.7383 61.8253 56.6956 61.3837L54.7049 61.5763ZM54.801 63.1984C54.8271 63.8778 54.8402 64.5916 54.8402 65.34H56.8402C56.8402 64.5684 56.8267 63.8288 56.7995 63.1216L54.801 63.1984ZM54.8402 65.34V74H56.8402V65.34H54.8402ZM55.8402 73H54.1802V75H55.8402V73ZM55.1802 74V59.72H53.1802V74H55.1802ZM54.1802 60.72H56.8402V58.72H54.1802V60.72ZM55.9042 60.072L60.3042 71.772L62.1762 71.068L57.7762 59.368L55.9042 60.072ZM61.2402 72.42H61.3202V70.42H61.2402V72.42ZM62.2541 71.7776L66.7341 60.0776L64.8664 59.3624L60.3864 71.0624L62.2541 71.7776ZM65.8002 60.72H68.4402V58.72H65.8002V60.72ZM67.4402 59.72V74H69.4402V59.72H67.4402ZM68.4402 73H66.6602V75H68.4402V73ZM67.6602 74V65.22H65.6602V74H67.6602ZM67.6602 65.22C67.6602 64.5395 67.6733 63.8659 67.6995 63.1992L65.701 63.1208C65.6738 63.8141 65.6602 64.5138 65.6602 65.22H67.6602ZM67.6985 63.2187C67.7385 62.5393 67.7717 61.9873 67.7983 61.5624L65.8022 61.4376C65.7754 61.866 65.742 62.4207 65.702 63.1013L67.6985 63.2187ZM66.8002 60.5H66.7202V62.5H66.8002V60.5ZM65.7857 61.1441L61.0257 73.6441L62.8948 74.3559L67.6548 61.8559L65.7857 61.1441ZM61.9602 73H60.4802V75H61.9602V73ZM78.5848 63.68L78.0626 64.5329L78.0703 64.5375L78.5848 63.68ZM80.1048 65.38L79.2007 65.8074L79.2054 65.8173L79.2103 65.8272L80.1048 65.38ZM80.6448 68.98V69.98H81.6448V68.98H80.6448ZM73.3048 68.98V67.98H72.2825L72.305 69.002L73.3048 68.98ZM74.2248 71.76L73.4876 72.4357L73.4949 72.4437L73.5025 72.4516L74.2248 71.76ZM78.5248 72.52L78.7496 73.4944L78.7585 73.4923L78.7673 73.4901L78.5248 72.52ZM80.1648 71.96H81.1648V70.4435L79.7708 71.0409L80.1648 71.96ZM80.1648 73.5L80.5668 74.4156L81.1648 74.1531V73.5H80.1648ZM78.5448 74.02L78.3486 73.0394L78.3369 73.0418L78.3253 73.0444L78.5448 74.02ZM73.9448 73.58L73.4734 74.462L73.4796 74.4652L73.9448 73.58ZM72.1248 71.74L71.2361 72.1986L71.2406 72.2073L71.2452 72.2158L72.1248 71.74ZM72.0648 65.7L71.1618 65.27L71.1564 65.2819L72.0648 65.7ZM73.7248 63.76L73.1919 62.9137L73.1848 62.9183L73.7248 63.76ZM74.2048 65.34L73.4624 64.67L73.4615 64.671L74.2048 65.34ZM73.3448 67.58L72.3495 67.4832L72.2428 68.58H73.3448V67.58ZM78.8048 67.58V68.58H79.8196L79.8047 67.5653L78.8048 67.58ZM78.1648 65.38L77.3535 65.9648L77.3602 65.9739L78.1648 65.38ZM76.2248 64.08C76.9977 64.08 77.5954 64.2468 78.0626 64.5329L79.1069 62.8271C78.2674 62.3132 77.2918 62.08 76.2248 62.08V64.08ZM78.0703 64.5375C78.5598 64.8312 78.9346 65.2446 79.2007 65.8074L81.0088 64.9526C80.5816 64.0487 79.943 63.3288 79.0993 62.8225L78.0703 64.5375ZM79.2103 65.8272C79.4879 66.3823 79.6448 67.0699 79.6448 67.92H81.6448C81.6448 66.8235 81.4417 65.8177 80.9992 64.9328L79.2103 65.8272ZM79.6448 67.92V68.98H81.6448V67.92H79.6448ZM80.6448 67.98H73.3048V69.98H80.6448V67.98ZM72.305 69.002C72.3349 70.3617 72.682 71.5568 73.4876 72.4357L74.9619 71.0843C74.5942 70.6832 74.328 70.0249 74.3045 68.958L72.305 69.002ZM73.5025 72.4516C74.3328 73.3189 75.4523 73.7 76.7248 73.7V71.7C75.8639 71.7 75.3167 71.4545 74.9471 71.0684L73.5025 72.4516ZM76.7248 73.7C77.4609 73.7 78.139 73.6353 78.7496 73.4944L78.2999 71.5456C77.8705 71.6447 77.3486 71.7 76.7248 71.7V73.7ZM78.7673 73.4901C79.3576 73.3426 79.9549 73.1379 80.5587 72.8791L79.7708 71.0409C79.2547 71.2621 78.7586 71.4308 78.2822 71.5499L78.7673 73.4901ZM79.1648 71.96V73.5H81.1648V71.96H79.1648ZM79.7628 72.5844C79.2758 72.7981 78.8047 72.9482 78.3486 73.0394L78.7409 75.0006C79.3515 74.8785 79.9604 74.6819 80.5668 74.4156L79.7628 72.5844ZM78.3253 73.0444C77.8836 73.1438 77.3276 73.2 76.6448 73.2V75.2C77.4286 75.2 78.1392 75.1362 78.7643 74.9956L78.3253 73.0444ZM76.6448 73.2C75.7705 73.2 75.0341 73.0227 74.4099 72.6948L73.4796 74.4652C74.4288 74.9639 75.4923 75.2 76.6448 75.2V73.2ZM74.4161 72.6981C73.8254 72.3823 73.3564 71.915 73.0043 71.2642L71.2452 72.2158C71.7732 73.1917 72.5175 73.951 73.4734 74.4619L74.4161 72.6981ZM73.0134 71.2814C72.6773 70.6302 72.4848 69.7899 72.4848 68.72H70.4848C70.4848 70.0235 70.7189 71.1965 71.2361 72.1986L73.0134 71.2814ZM72.4848 68.72C72.4848 67.6535 72.6608 66.7967 72.9731 66.1181L71.1564 65.2819C70.6954 66.2833 70.4848 67.4398 70.4848 68.72H72.4848ZM72.9676 66.1299C73.2964 65.4396 73.7317 64.9436 74.2647 64.6017L73.1848 62.9183C72.3045 63.483 71.6332 64.2804 71.1619 65.2701L72.9676 66.1299ZM74.2576 64.6062C74.8004 64.2644 75.4447 64.08 76.2248 64.08V62.08C75.1115 62.08 74.0891 62.3489 73.192 62.9138L74.2576 64.6062ZM76.2048 63.52C75.1258 63.52 74.1729 63.8826 73.4624 64.67L74.9472 66.01C75.2233 65.704 75.6038 65.52 76.2048 65.52V63.52ZM73.4615 64.671C72.7965 65.4099 72.4564 66.3829 72.3495 67.4832L74.3401 67.6768C74.4198 66.8571 74.6531 66.3367 74.9481 66.009L73.4615 64.671ZM73.3448 68.58H78.8048V66.58H73.3448V68.58ZM79.8047 67.5653C79.7892 66.5128 79.5394 65.5585 78.9693 64.7861L77.3602 65.9739C77.6168 66.3215 77.7937 66.8338 77.8049 67.5947L79.8047 67.5653ZM78.9759 64.7952C78.3255 63.893 77.3251 63.52 76.2048 63.52V65.52C76.8711 65.52 77.1774 65.7203 77.3536 65.9648L78.9759 64.7952ZM89.9138 74L88.9776 74.3515L89.2211 75H89.9138V74ZM85.2138 61.48L86.15 61.1285L85.9066 60.48H85.2138V61.48ZM85.1338 61.48V60.48H84.0324L84.1385 61.5763L85.1338 61.48ZM85.2338 63.16L84.2345 63.1977L84.2346 63.1984L85.2338 63.16ZM85.2738 74V75H86.2738V74H85.2738ZM83.6138 74H82.6138V75H83.6138V74ZM83.6138 59.72V58.72H82.6138V59.72H83.6138ZM86.2738 59.72L87.2098 59.368L86.9661 58.72H86.2738V59.72ZM90.6738 71.42L89.7378 71.772L89.9815 72.42H90.6738V71.42ZM90.7538 71.42V72.42H91.4417L91.6877 71.7776L90.7538 71.42ZM95.2338 59.72V58.72H94.5459L94.2999 59.3624L95.2338 59.72ZM97.8738 59.72H98.8738V58.72H97.8738V59.72ZM97.8738 74V75H98.8738V74H97.8738ZM96.0938 74H95.0938V75H96.0938V74ZM96.1338 63.16L95.1356 63.1013L95.135 63.111L95.1346 63.1208L96.1338 63.16ZM96.2338 61.5L97.2319 61.5624L97.2983 60.5H96.2338V61.5ZM96.1538 61.5V60.5H95.4646L95.2193 61.1441L96.1538 61.5ZM91.3938 74V75H92.0831L92.3284 74.3559L91.3938 74ZM90.85 73.6485L86.15 61.1285L84.2776 61.8315L88.9776 74.3515L90.85 73.6485ZM85.2138 60.48H85.1338V62.48H85.2138V60.48ZM84.1385 61.5763C84.1757 61.9613 84.2082 62.4991 84.2345 63.1977L86.2331 63.1223C86.2061 62.4076 86.1719 61.8253 86.1292 61.3837L84.1385 61.5763ZM84.2346 63.1984C84.2607 63.8778 84.2738 64.5916 84.2738 65.34H86.2738C86.2738 64.5684 86.2603 63.8288 86.2331 63.1216L84.2346 63.1984ZM84.2738 65.34V74H86.2738V65.34H84.2738ZM85.2738 73H83.6138V75H85.2738V73ZM84.6138 74V59.72H82.6138V74H84.6138ZM83.6138 60.72H86.2738V58.72H83.6138V60.72ZM85.3378 60.072L89.7378 71.772L91.6098 71.068L87.2098 59.368L85.3378 60.072ZM90.6738 72.42H90.7538V70.42H90.6738V72.42ZM91.6877 71.7776L96.1677 60.0776L94.2999 59.3624L89.8199 71.0624L91.6877 71.7776ZM95.2338 60.72H97.8738V58.72H95.2338V60.72ZM96.8738 59.72V74H98.8738V59.72H96.8738ZM97.8738 73H96.0938V75H97.8738V73ZM97.0938 74V65.22H95.0938V74H97.0938ZM97.0938 65.22C97.0938 64.5395 97.1069 63.8659 97.1331 63.1992L95.1346 63.1208C95.1074 63.8141 95.0938 64.5138 95.0938 65.22H97.0938ZM97.1321 63.2187C97.1721 62.5393 97.2053 61.9873 97.2319 61.5624L95.2358 61.4376C95.209 61.866 95.1756 62.4207 95.1356 63.1013L97.1321 63.2187ZM96.2338 60.5H96.1538V62.5H96.2338V60.5ZM95.2193 61.1441L90.4593 73.6441L92.3284 74.3559L97.0884 61.8559L95.2193 61.1441ZM91.3938 73H89.9138V75H91.3938V73ZM107.338 73.4L106.771 72.5768L106.771 72.5768L107.338 73.4ZM102.278 74.02L102.059 74.9956L102.064 74.9967L102.278 74.02ZM100.858 73.52H99.8584V74.1292L100.4 74.4086L100.858 73.52ZM100.858 71.92L101.306 71.0256L99.8584 70.302V71.92H100.858ZM102.398 72.52L102.101 73.4749L102.114 73.4787L102.126 73.4823L102.398 72.52ZM106.198 72.36L106.772 73.1792L106.781 73.1729L106.79 73.1664L106.198 72.36ZM106.578 70.48L107.402 69.9135L107.402 69.9135L106.578 70.48ZM105.778 69.84L105.282 70.7082L105.289 70.712L105.295 70.7156L105.778 69.84ZM104.158 69.12L103.799 70.0534L103.805 70.0556L104.158 69.12ZM101.238 67.36L100.425 67.9412L100.425 67.9412L101.238 67.36ZM101.938 63.82L101.387 62.9856L101.38 62.9903L101.938 63.82ZM106.678 63.28L106.447 64.2528L106.46 64.256L106.473 64.2588L106.678 63.28ZM108.278 63.8L109.198 64.1939L109.581 63.2982L108.696 62.8913L108.278 63.8ZM107.678 65.2L107.298 66.1247L108.209 66.5L108.598 65.5939L107.678 65.2ZM106.258 64.72L105.997 65.6854L105.997 65.6854L106.258 64.72ZM103.078 64.88L103.597 65.7348L103.606 65.7296L103.078 64.88ZM102.778 66.58L102.002 67.2106L102.012 67.2229L102.023 67.2349L102.778 66.58ZM103.638 67.18L103.191 68.0744L103.209 68.0833L103.227 68.0914L103.638 67.18ZM105.278 67.86L104.913 68.791L104.921 68.7941L104.929 68.7971L105.278 67.86ZM107.018 68.64L106.533 69.5142L106.533 69.5142L107.018 68.64ZM108.118 69.62L107.282 70.168L107.286 70.1748L107.291 70.1815L108.118 69.62ZM107.498 71.04C107.498 71.7924 107.241 72.2523 106.771 72.5768L107.906 74.2232C108.982 73.481 109.498 72.3676 109.498 71.04H107.498ZM106.771 72.5768C106.218 72.958 105.399 73.2 104.218 73.2V75.2C105.651 75.2 106.912 74.9087 107.906 74.2232L106.771 72.5768ZM104.218 73.2C103.521 73.2 102.95 73.1437 102.493 73.0433L102.064 74.9967C102.7 75.1363 103.422 75.2 104.218 75.2V73.2ZM102.498 73.0444C102.034 72.9399 101.643 72.7995 101.317 72.6314L100.4 74.4086C100.901 74.6671 101.457 74.8601 102.059 74.9956L102.498 73.0444ZM101.858 73.52V71.92H99.8584V73.52H101.858ZM100.411 72.8144C100.899 73.0581 101.465 73.2769 102.101 73.4749L102.695 71.5651C102.132 71.3898 101.672 71.2085 101.306 71.0256L100.411 72.8144ZM102.126 73.4823C102.827 73.6802 103.538 73.78 104.258 73.78V71.78C103.725 71.78 103.197 71.7064 102.67 71.5577L102.126 73.4823ZM104.258 73.78C105.209 73.78 106.114 73.6399 106.772 73.1792L105.625 71.5408C105.483 71.6401 105.094 71.78 104.258 71.78V73.78ZM106.79 73.1664C107.436 72.6921 107.798 72.0109 107.798 71.2H105.798C105.798 71.3491 105.76 71.4412 105.607 71.5536L106.79 73.1664ZM107.798 71.2C107.798 70.7375 107.667 70.2988 107.402 69.9135L105.754 71.0465C105.783 71.0879 105.798 71.1292 105.798 71.2H107.798ZM107.402 69.9135C107.126 69.5116 106.701 69.2068 106.261 68.9644L105.295 70.7156C105.629 70.8999 105.737 71.0218 105.754 71.0465L107.402 69.9135ZM106.274 68.9718C105.834 68.7198 105.237 68.458 104.511 68.1844L103.805 70.0556C104.494 70.3153 104.977 70.5336 105.282 70.7082L106.274 68.9718ZM104.517 68.1867C103.852 67.9307 103.3 67.6813 102.854 67.4403L101.903 69.1997C102.444 69.492 103.078 69.7759 103.799 70.0533L104.517 68.1867ZM102.854 67.4403C102.465 67.2302 102.213 67.0036 102.052 66.7788L100.425 67.9412C100.797 68.463 101.305 68.8764 101.903 69.1997L102.854 67.4403ZM102.052 66.7788C101.936 66.6169 101.838 66.3564 101.838 65.92H99.8384C99.8384 66.6569 100.007 67.3564 100.425 67.9412L102.052 66.7788ZM101.838 65.92C101.838 65.3359 102.048 64.9516 102.497 64.6497L101.38 62.9903C100.362 63.6751 99.8384 64.6908 99.8384 65.92H101.838ZM102.49 64.6543C103.026 64.3002 103.789 64.08 104.858 64.08V62.08C103.528 62.08 102.344 62.3532 101.387 62.9857L102.49 64.6543ZM104.858 64.08C105.444 64.08 105.972 64.1398 106.447 64.2528L106.91 62.3072C106.265 62.1536 105.579 62.08 104.858 62.08V64.08ZM106.473 64.2588C106.979 64.3647 107.441 64.5156 107.861 64.7087L108.696 62.8913C108.129 62.631 107.524 62.4353 106.883 62.3012L106.473 64.2588ZM107.359 63.4061L106.759 64.8061L108.598 65.5939L109.198 64.1939L107.359 63.4061ZM108.059 64.2753C107.565 64.0719 107.052 63.8985 106.519 63.7546L105.997 65.6854C106.452 65.8081 106.885 65.9548 107.298 66.1247L108.059 64.2753ZM106.519 63.7546C105.939 63.5979 105.345 63.52 104.738 63.52V65.52C105.172 65.52 105.591 65.5754 105.997 65.6854L106.519 63.7546ZM104.738 63.52C103.931 63.52 103.163 63.6505 102.551 64.0304L103.606 65.7296C103.767 65.6295 104.106 65.52 104.738 65.52V63.52ZM102.559 64.0252C101.92 64.4132 101.518 65.0336 101.518 65.82H103.518C103.518 65.8089 103.519 65.8012 103.52 65.7965C103.52 65.7918 103.521 65.7896 103.521 65.7894C103.521 65.7893 103.521 65.7903 103.52 65.7922C103.519 65.794 103.518 65.7956 103.517 65.7968C103.512 65.8058 103.523 65.78 103.597 65.7348L102.559 64.0252ZM101.518 65.82C101.518 66.3264 101.674 66.8065 102.002 67.2106L103.554 65.9494C103.536 65.9268 103.518 65.9002 103.518 65.82H101.518ZM102.023 67.2349C102.322 67.5799 102.744 67.8506 103.191 68.0744L104.086 66.2856C103.733 66.1094 103.582 65.9801 103.534 65.9251L102.023 67.2349ZM103.227 68.0914C103.662 68.2878 104.226 68.5214 104.913 68.791L105.643 66.929C104.971 66.6653 104.442 66.4455 104.05 66.2686L103.227 68.0914ZM104.929 68.7971C105.576 69.0381 106.108 69.2782 106.533 69.5142L107.504 67.7658C106.969 67.4685 106.341 67.1886 105.627 66.9229L104.929 68.7971ZM106.533 69.5142C106.898 69.7169 107.133 69.9402 107.282 70.168L108.955 69.072C108.597 68.5265 108.099 68.0965 107.504 67.7658L106.533 69.5142ZM107.291 70.1815C107.405 70.3494 107.498 70.6128 107.498 71.04H109.498C109.498 70.3206 109.339 69.6372 108.946 69.0585L107.291 70.1815ZM116.789 63.48L116.359 64.3829L116.367 64.3867L116.789 63.48ZM118.249 64.7L117.442 65.2905L117.741 65.7H118.249V64.7ZM118.349 64.7V65.7H119.194L119.335 64.8666L118.349 64.7ZM118.589 63.28V62.28H117.744L117.603 63.1133L118.589 63.28ZM119.989 63.28H120.989V62.28H119.989V63.28ZM118.809 77.64L118.108 76.9268L118.102 76.9329L118.809 77.64ZM111.329 78.12H110.329V78.7646L110.916 79.0308L111.329 78.12ZM111.329 76.5L111.798 75.617L110.329 74.8358V76.5H111.329ZM117.449 76.52L116.742 75.8129L116.733 75.8217L116.724 75.8308L117.449 76.52ZM118.269 73.22L119.268 73.2654L119.268 73.2634L118.269 73.22ZM118.309 72.58L119.303 72.6904L119.426 71.58H118.309V72.58ZM118.229 72.58V71.58H117.693L117.397 72.0253L118.229 72.58ZM111.649 72.74L110.866 73.3621L110.871 73.3686L111.649 72.74ZM111.649 64.6L110.859 63.9868L110.858 63.9883L111.649 64.6ZM113.049 65.64L113.869 66.2124L113.874 66.2052L113.049 65.64ZM113.029 71.72L112.201 72.2819L112.208 72.2909L112.214 72.2998L113.029 71.72ZM117.529 71.9L118.287 72.5523L118.294 72.5436L117.529 71.9ZM117.509 65.52L116.725 66.1407L116.731 66.1487L117.509 65.52ZM114.889 64.08C115.467 64.08 115.951 64.1885 116.359 64.3829L117.219 62.5771C116.507 62.2382 115.723 62.08 114.889 62.08V64.08ZM116.367 64.3867C116.776 64.5771 117.134 64.8701 117.442 65.2905L119.056 64.1095C118.563 63.4366 117.948 62.9162 117.21 62.5733L116.367 64.3867ZM118.249 65.7H118.349V63.7H118.249V65.7ZM119.335 64.8666L119.575 63.4467L117.603 63.1133L117.363 64.5333L119.335 64.8666ZM118.589 64.28H119.989V62.28H118.589V64.28ZM118.989 63.28V74.18H120.989V63.28H118.989ZM118.989 74.18C118.989 75.5519 118.638 76.4051 118.108 76.9269L119.51 78.3531C120.552 77.3283 120.989 75.8748 120.989 74.18H118.989ZM118.102 76.9329C117.592 77.4429 116.694 77.8 115.189 77.8V79.8C116.963 79.8 118.479 79.3838 119.516 78.3471L118.102 76.9329ZM115.189 77.8C113.701 77.8 112.568 77.584 111.742 77.2092L110.916 79.0308C112.089 79.5626 113.53 79.8 115.189 79.8V77.8ZM112.329 78.12V76.5H110.329V78.12H112.329ZM110.859 77.383C112.097 78.041 113.59 78.34 115.289 78.34V76.34C113.814 76.34 112.667 76.079 111.798 75.617L110.859 77.383ZM115.289 78.34C116.418 78.34 117.424 77.9967 118.173 77.2092L116.724 75.8308C116.433 76.1367 115.999 76.34 115.289 76.34V78.34ZM118.156 77.2271C118.919 76.4638 119.249 75.4518 119.249 74.32H117.249C117.249 75.0549 117.045 75.5095 116.742 75.8129L118.156 77.2271ZM119.249 74.32V73.9H117.249V74.32H119.249ZM119.249 73.9C119.249 73.7628 119.255 73.5538 119.268 73.2654L117.27 73.1746C117.256 73.4728 117.249 73.7172 117.249 73.9H119.249ZM119.268 73.2634C119.281 72.9554 119.293 72.773 119.303 72.6904L117.315 72.4696C117.297 72.627 117.283 72.8713 117.27 73.1766L119.268 73.2634ZM118.309 71.58H118.229V73.58H118.309V71.58ZM117.397 72.0253C116.892 72.7817 116.126 73.2 114.909 73.2V75.2C116.678 75.2 118.125 74.5383 119.061 73.1347L117.397 72.0253ZM114.909 73.2C113.787 73.2 113.001 72.8225 112.426 72.1114L110.871 73.3686C111.87 74.6042 113.257 75.2 114.909 75.2V73.2ZM112.432 72.1179C111.846 71.3809 111.489 70.2705 111.489 68.66H109.489C109.489 70.5428 109.905 72.1525 110.866 73.3621L112.432 72.1179ZM111.489 68.66C111.489 67.0978 111.842 65.9842 112.44 65.2117L110.858 63.9883C109.908 65.2158 109.489 66.8088 109.489 68.66H111.489ZM112.439 65.2132C113.021 64.4631 113.799 64.08 114.889 64.08V62.08C113.232 62.08 111.85 62.7102 110.859 63.9868L112.439 65.2132ZM115.129 63.56C113.915 63.56 112.909 64.0751 112.224 65.0748L113.874 66.2052C114.175 65.7649 114.556 65.56 115.129 65.56V63.56ZM112.229 65.0676C111.571 66.0097 111.309 67.257 111.309 68.68H113.309C113.309 67.463 113.54 66.6836 113.869 66.2124L112.229 65.0676ZM111.309 68.68C111.309 70.0989 111.563 71.3417 112.201 72.2819L113.856 71.1581C113.534 70.6849 113.309 69.9011 113.309 68.68H111.309ZM112.214 72.2998C112.915 73.2852 113.948 73.76 115.169 73.76V71.76C114.522 71.76 114.129 71.5415 113.843 71.1402L112.214 72.2998ZM115.169 73.76C116.411 73.76 117.533 73.4281 118.287 72.5522L116.771 71.2478C116.538 71.5186 116.086 71.76 115.169 71.76V73.76ZM118.294 72.5436C119.013 71.6887 119.269 70.4602 119.269 69.08H117.269C117.269 70.2864 117.031 70.9379 116.763 71.2564L118.294 72.5436ZM119.269 69.08V68.66H117.269V69.08H119.269ZM119.269 68.66C119.269 67.1302 119.015 65.7921 118.286 64.8913L116.731 66.1487C117.016 66.5012 117.269 67.2565 117.269 68.66H119.269ZM118.293 64.8993C117.539 63.9472 116.408 63.56 115.129 63.56V65.56C116.009 65.56 116.465 65.8128 116.725 66.1407L118.293 64.8993Z" fill="white"/>
<path d="M100.265 15.0068C99.6577 15.0413 99.1655 15.0812 98.7746 15.1263C95.9762 15.4504 93.3549 16.3668 91.0121 17.841C88.4612 19.4454 86.3771 21.6474 84.9765 24.2213C83.8655 26.264 83.2468 28.3359 83.0359 30.7291C82.988 31.2418 82.988 32.7399 83.0359 33.2526C83.2468 35.6459 83.8655 37.7177 84.9765 39.7604C86.6921 42.9134 89.4174 45.4873 92.7559 47.1076C94.9187 48.1568 97.1124 48.7412 99.6465 48.9404C100.189 48.9855 101.776 48.9855 102.318 48.9404C104.852 48.7412 107.046 48.1568 109.209 47.1076C112.547 45.4873 115.273 42.9134 116.988 39.7604C118.099 37.7177 118.718 35.6459 118.929 33.2526C118.977 32.7399 118.977 31.2418 118.929 30.7291C118.718 28.3359 118.099 26.264 116.988 24.2213C115.273 21.0684 112.547 18.4944 109.209 16.8741C107.091 15.8462 104.903 15.2538 102.487 15.0573C102.026 15.0174 100.614 14.9855 100.265 15.0068ZM102.344 17.076C106.028 17.3735 109.428 18.8584 112.086 21.3234C114.842 23.8813 116.476 27.1937 116.791 30.8619C116.834 31.3746 116.834 32.6071 116.791 33.1198C116.482 36.7057 114.924 39.9384 112.277 42.4777C109.563 45.0835 106.073 46.6188 102.178 46.9216C101.635 46.9641 100.33 46.9641 99.7871 46.9216C95.889 46.6188 92.3959 45.0835 89.6874 42.4804C87.0352 39.9277 85.4884 36.7243 85.1734 33.1198C85.1284 32.6071 85.1284 31.3746 85.1734 30.8619C85.4968 27.1751 87.1224 23.8813 89.8759 21.3234C92.3452 19.0337 95.4671 17.5834 98.8449 17.1584C100.015 17.0123 101.185 16.983 102.344 17.076Z" fill="white"/>
<path d="M97.2137 20.468C97.0618 20.5079 95.304 21.4748 95.1999 21.5757C94.9665 21.7988 94.913 22.1255 95.0593 22.3965C95.2112 22.6754 98.2909 27.7037 98.364 27.794C98.5271 27.9879 98.8871 28.1021 99.1402 28.0357C99.2696 28.0038 101.002 27.0662 101.151 26.9493C101.342 26.7979 101.447 26.4738 101.379 26.2401C101.362 26.1816 100.608 24.9199 99.7028 23.4377C98.3696 21.2543 98.0321 20.7204 97.9281 20.6301C97.7368 20.4601 97.4668 20.399 97.2137 20.468Z" fill="#4A8C67"/>
<path d="M94.0693 22.7816C93.4674 23.1269 93.1665 23.3341 92.8459 23.6237C91.9065 24.471 91.6562 25.313 91.8165 27.0635C92.0471 29.5657 93.3605 32.9099 95.3293 36.0018C97.1771 38.9024 99.3962 41.3037 101.446 42.6212C102.501 43.2985 103.156 43.5323 104.006 43.5323C104.574 43.5323 105.046 43.426 105.71 43.1471C106.02 43.0143 106.737 42.6557 106.762 42.6185C106.771 42.6026 103.564 37.3273 103.393 37.0723C103.376 37.0457 103.345 37.051 103.261 37.0908C103.066 37.1838 102.746 37.2741 102.496 37.3033C101.576 37.4096 100.487 36.9102 99.4777 35.9168C98.229 34.6896 97.239 32.8807 96.9324 31.2604C96.7046 30.0704 96.8762 29.1115 97.4246 28.5032C97.5174 28.3996 97.8296 28.1526 97.8915 28.134C97.914 28.126 97.2812 27.0688 96.2321 25.3476C95.2984 23.8229 94.5277 22.5665 94.5165 22.5559C94.5052 22.5426 94.3055 22.6462 94.0693 22.7816Z" fill="#4A8C67"/>
<path d="M106.101 34.833C105.946 34.8516 105.972 34.841 104.94 35.4015C104.478 35.6512 104.056 35.8955 104.003 35.9433C103.801 36.1266 103.716 36.4348 103.801 36.6685C103.848 36.8013 107.049 42.05 107.167 42.1882C107.367 42.4272 107.763 42.499 108.084 42.3529C108.326 42.244 109.811 41.4311 109.926 41.3435C110.084 41.224 110.179 41.0247 110.179 40.8069C110.179 40.7086 110.165 40.5918 110.146 40.5519C110.05 40.3394 106.841 35.1252 106.754 35.0402C106.582 34.8702 106.357 34.7985 106.101 34.833Z" fill="#4A8C67"/>
</svg>
